<?xml version="1.0" encoding="UTF-8" standalone="no"?>
<svg
   width="500"
   zoomAndPan="magnify"
   viewBox="0 0 375 374.999991"
   height="500"
   preserveAspectRatio="xMidYMid meet"
   version="1.0"
   id="svg194"
   sodipodi:docname="whatsapp.svg"
   inkscape:version="1.2.2 (b0a8486541, 2022-12-01)"
   xmlns:inkscape="http://www.inkscape.org/namespaces/inkscape"
   xmlns:sodipodi="http://sodipodi.sourceforge.net/DTD/sodipodi-0.dtd"
   xmlns="http://www.w3.org/2000/svg"
   xmlns:svg="http://www.w3.org/2000/svg">
  <defs
     id="defs198" />
  <sodipodi:namedview
     id="namedview196"
     pagecolor="#ffffff"
     bordercolor="#666666"
     borderopacity="1.0"
     inkscape:showpageshadow="2"
     inkscape:pageopacity="0.0"
     inkscape:pagecheckerboard="0"
     inkscape:deskcolor="#d1d1d1"
     showgrid="false"
     inkscape:zoom="0.952"
     inkscape:cx="250"
     inkscape:cy="250.52521"
     inkscape:window-width="1366"
     inkscape:window-height="704"
     inkscape:window-x="0"
     inkscape:window-y="0"
     inkscape:window-maximized="1"
     inkscape:current-layer="svg194" />
  <path
     fill="#031f40"
     d="M 252.601562 214.292969 C 253.292969 215.511719 253.292969 221.210938 250.929688 227.886719 C 248.570312 234.5625 239.175781 240.113281 231.695312 241.726562 C 226.574219 242.8125 219.882812 243.695312 197.363281 234.355469 C 168.5625 222.429688 150 193.144531 148.574219 191.25 C 147.1875 189.335938 136.929688 175.742188 136.929688 161.679688 C 136.929688 147.617188 144.074219 140.757812 146.960938 137.832031 C 149.324219 135.414062 153.242188 134.324219 156.992188 134.324219 C 158.210938 134.324219 159.300781 134.382812 160.273438 134.4375 C 163.164062 134.550781 164.585938 134.71875 166.5 139.273438 C 168.863281 144.976562 174.617188 159.039062 175.3125 160.480469 C 176.007812 161.925781 176.699219 163.875 175.726562 165.789062 C 174.804688 167.738281 174 168.617188 172.554688 170.289062 C 171.113281 171.957031 169.726562 173.230469 168.300781 175.011719 C 166.96875 176.570312 165.46875 178.238281 167.15625 181.125 C 168.824219 183.957031 174.582031 193.351562 183.054688 200.886719 C 194.007812 210.617188 202.875 213.75 206.042969 215.0625 C 208.40625 216.039062 211.238281 215.8125 212.960938 213.976562 C 215.15625 211.613281 217.855469 207.695312 220.632812 203.832031 C 222.582031 201.054688 225.074219 200.71875 227.664062 201.695312 C 230.304688 202.613281 244.3125 209.53125 247.199219 210.976562 C 250.085938 212.417969 251.980469 213.113281 252.675781 214.3125 Z M 375 187.5 C 375 291.054688 291.054688 375 187.5 375 C 83.945312 375 0 291.054688 0 187.5 C 0 83.945312 83.945312 0 187.5 0 C 291.054688 0 375 83.945312 375 187.5 Z M 291.882812 187.5 C 291.882812 133.445312 247.929688 89.476562 193.894531 89.476562 L 193.835938 89.476562 C 139.800781 89.476562 95.851562 133.445312 95.851562 187.5 C 95.851562 208.929688 102.769531 228.824219 114.507812 244.949219 L 102.300781 281.363281 L 139.96875 269.324219 C 155.457031 279.582031 173.960938 285.523438 193.894531 285.523438 C 247.929688 285.523438 291.882812 241.554688 291.882812 187.5 Z M 291.882812 187.5 "
     fill-opacity="1"
     fill-rule="nonzero"
     id="path192"
     style="fill:#ffffff" />
</svg>
